<svg viewBox="0 0 1032.388 1063.951" height="72"><path d="M388.46 21.333c3.043 0 6.132 0 9.222.277 41.327.156 78.692 16.994 105.735 44.127l.004.004c27.446 28.075 45.134 65.79 47.524 107.6l.02.445v749.347c-.08 67.458-54.743 122.123-122.194 122.2h-.007c-55.16-.05-101.776-36.57-117.04-86.748l-.227-.867c-49.096-1.848-93.033-22.515-125.09-54.95l-.017-.018c-34.07-33.537-55.216-80.115-55.337-131.632v-10.72c-46.856-23.19-83.922-60.212-106.56-105.68l-.608-1.35C8.828 624.192 0 589.692 0 553.13c0-26.62 4.68-52.148 13.262-75.804l-.49 1.547c14.56-45.795 42.782-83.79 79.82-110.233l.648-.44c-2.353-10.542-3.743-22.678-3.827-35.123v-.062c-.013-.824-.02-1.797-.02-2.772 0-85.344 57.844-157.178 136.467-178.434l1.294-.3c7.974-33.715 25.202-62.615 48.834-84.763l.092-.086c29.094-27.884 68.588-45.118 112.107-45.33h.04zm93.38 155.956c-.573-47.138-38.282-85.283-85.193-86.554l-.118-.003h-8.07c-51.114 1.373-92.436 41.462-95.763 91.932l-.016.295-1.797 28.82-28.683 3.367c-58.37 6.883-103.22 56.067-103.22 115.726 0 .737.006 1.47.02 2.205l-.003-.11c.433 14.385 3.135 28.005 7.758 40.7l-.288-.904 9.223 27.253-25.086 13.834c-33.815 18.287-59.25 48.43-71 84.728l-.292 1.044-.646 1.89c-5.63 15.334-8.887 33.04-8.887 51.507 0 25.445 6.182 49.446 17.13 70.582l-.404-.856c19.225 39.156 52.696 68.846 93.488 82.67l1.137.335 38.552 12.267L201.79 753.8c-.767 4.268-1.205 9.18-1.205 14.195 0 1.04.02 2.078.056 3.11l-.003-.15c.87 64.59 53 116.72 117.507 117.59h57.725v34.586c.077 29.257 23.773 52.953 53.022 53.032h.008c29.256-.078 52.952-23.774 53.03-53.023v-.01zM270.084 514.98c-100.85-6.25-180.272-89.57-180.272-191.44 0-2.247.04-4.484.115-6.71l-.01.322c3.102-48.723 24.002-92.042 56.2-123.987l.013-.012c31.927-32.173 75.194-53.052 123.302-56.138l.56-.03 4.058 69.17c-61.836 4.362-110.923 53.45-115.262 114.89l-.022.395c-.01.562-.014 1.225-.014 1.89 0 65.15 50.565 118.492 114.59 122.92l.385.02zM551.01 789.402h-69.17c-.08-77.645-63-140.568-140.64-140.647h-.006v-69.17c115.826.13 209.686 93.99 209.817 209.805v.012zM382.695 339.794v-69.17c54.735-.052 99.092-44.41 99.144-99.14v-.004h69.17c-.106 92.916-75.4 168.21-168.306 168.315h-.01zM644.39 21.334c43.46.233 82.86 17.407 111.98 45.25l-.062-.06c23.725 22.234 40.953 51.134 48.698 83.708l.23 1.142c79.916 21.553 137.76 93.387 137.76 178.732 0 .974-.007 1.947-.022 2.918l.002-.146c-.086 12.508-1.475 24.643-4.04 36.338l.212-1.154c37.687 26.882 65.91 64.878 80.052 109.163l.416 1.51c8.092 22.11 12.772 47.638 12.772 74.258 0 36.562-8.828 71.062-24.468 101.485l.583-1.25c-23.247 46.82-60.312 83.84-105.812 106.422l-1.355.61v10.697c-.055 51.51-21.12 98.088-55.087 131.636l-.02.02c-32.073 32.452-76.01 53.12-124.765 54.956l-.34.01c-15.49 51.042-62.107 87.564-117.26 87.615h-.007c-67.458-.08-122.123-54.743-122.2-122.194V173.648c2.362-42.324 20.06-80.11 47.573-108.26l-.032.032c27.05-27.134 64.412-43.97 105.708-44.132h.03zm186.76 732.422l-17.892-35.784 38.55-12.266c41.93-14.158 75.4-43.848 94.205-82.057l.422-.95c10.543-20.28 16.726-44.28 16.726-69.726 0-18.467-3.256-36.172-9.226-52.575l.34 1.068-.646-1.89c-12.043-37.345-37.477-67.486-70.513-85.386l-.78-.386-25.085-13.834 9.223-27.253c4.334-11.793 7.036-25.412 7.466-39.602l.004-.195c.012-.623.02-1.358.02-2.095 0-59.66-44.85-108.843-102.673-115.673l-.548-.053-28.683-3.366-1.8-28.82c-3.342-50.766-44.664-90.855-95.645-92.226l-.132-.003h-8.07c-47.03 1.274-84.738 39.418-85.31 86.5V923.132c.077 29.255 23.773 52.95 53.022 53.03h.008c29.256-.078 52.952-23.774 53.03-53.023v-34.594h57.643c64.59-.87 116.72-53 117.59-117.507v-.084c.024-.75.038-1.634.038-2.52 0-5.172-.467-10.234-1.36-15.148l.078.514zM758.152 514.98l-3.827-69.17c64.412-4.447 114.978-57.788 114.978-122.94 0-.713-.006-1.425-.018-2.135v.107c-4.498-61.708-53.54-110.64-114.892-114.94l-.39-.02 4.057-69.17c48.67 3.114 91.935 23.992 123.85 56.153l.01.012c32.174 31.926 53.053 75.193 56.14 123.3l.028.56c.077 2.033.12 4.42.12 6.816 0 101.794-79.304 185.065-179.5 191.4l-.556.028zM551.01 789.402h-69.17c.13-115.826 93.99-209.686 209.805-209.817h.012v69.17c-77.645.08-140.568 63-140.647 140.64v.006zm99.144-449.608c-92.916-.105-168.21-75.4-168.315-168.305v-.01h69.17c.05 54.734 44.41 99.09 99.138 99.143h.005z"/></svg>