<svg fill="none" height="24" viewBox="0 0 24 24" width="24" version="1.0" xmlns="http://www.w3.org/2000/svg"><g><path d="m7.62906 3.56969c.17939-.09785.37.05268.37.25701v13.5558c0 .2233-.15241.4121-.3498.5163-.00677.0036-.0135.0072-.0202.0109l-2.35 1.34c-1.64.94-2.99.16-2.99-1.74v-9.73001c0-.63.45-1.41 1.01-1.73z"/><path d="m14.7219 6.1029c.1703.08435.2781.25799.2781.44806v13.15314c0 .3685-.385.6104-.717.4505l-4.25-2.0476c-.17302-.0834-.283-.2585-.283-.4505v-13.2103c0-.37086.3896-.61265.7219-.44806z"/><path d="m22 6.49006v9.73004c0 .63-.45 1.41-1.01 1.73l-3.4914 2.0009c-.3333.1911-.7486-.0496-.7486-.4338v-13.18682c0-.17951.0962-.34525.2521-.43423l2.0079-1.14609c1.64-.94 2.99-.16 2.99 1.74z"/></g></svg>