<?xml version="1.0" encoding="UTF-8"?>
<svg xmlns="http://www.w3.org/2000/svg" xmlns:xlink="http://www.w3.org/1999/xlink" width="1200" height="600" viewBox="0 0 1200 600">
    <defs>
        <clipPath id="tuv_b">
            <path d="M0 0v150h700v150H600zm0 300v100h300V0h300z"/>
        </clipPath>
		<clipPath id="tuv_d">
			<path d="M0 0v600h1200V0z"/>
		</clipPath>
        <path id="tuv_a" fill="#ffce00" d="m0-50.08 29.437 90.596-77.067-55.992h95.26l-77.067 55.993z"/>
        <use id="tuv_c" xlink:href="#tuv_a" transform="rotate(36)"/>
    </defs>
    <path fill="#00247d" d="M0 0h1200v600H0z"/>
    <path d="m0 0 600 300M0 300 600 0" stroke="#fff" stroke-width="60" clip-path="url(#tuv_d)"/>
    <path d="m0 0 600 300M0 300 600 0" stroke="#cf142b" stroke-width="40" clip-path="url(#tuv_b)"/>
    <path d="M300 0v400M0 150h700" stroke="#fff" stroke-width="100"/>
    <path d="M300 0v400M0 150h700" stroke="#cf142b" stroke-width="60"/>
    <path d="M0 300h600V0h600v600H0z" fill="#5b97b1"/>
    <use xlink:href="#tuv_a" x="645.34" y="540.994"/>
    <use xlink:href="#tuv_c" x="788.026" y="504.516"/>
    <use xlink:href="#tuv_c" x="788.026" y="382.532"/>
    <use xlink:href="#tuv_c" x="914.03" y="473.684"/>
    <use xlink:href="#tuv_c" x="914.03" y="208.271"/>
    <use xlink:href="#tuv_a" x="996.442" y="390.046"/>
    <use xlink:href="#tuv_c" x="1019.928" y="172.078"/>
    <use xlink:href="#tuv_a" x="1102.836" y="321.554"/>
    <use xlink:href="#tuv_a" x="1102.836" y="87.486"/>
</svg>
