<svg version="1.0" xmlns="http://www.w3.org/2000/svg"
 width="72px" height="72px" viewBox="20 20 171.000000 182.000000"
 preserveAspectRatio="xMidYMid meet">

<g transform="translate(0.000000,222.000000) scale(0.100000,-0.100000)" stroke="none">
<path d="M764 1862 c-47 -22 -83 -64 -91 -105 -4 -18 -17 -33 -37 -44 -79 -40
-119 -102 -119 -185 0 -51 -3 -57 -23 -62 -32 -8 -91 -62 -111 -100 -22 -41
-21 -132 1 -174 l17 -33 -46 -41 c-64 -57 -88 -107 -88 -188 0 -93 49 -176
127 -217 26 -13 28 -18 22 -52 -19 -121 95 -241 215 -229 27 3 32 -1 44 -35
17 -51 41 -76 94 -99 77 -35 171 -4 215 72 20 33 21 53 24 348 l3 312 -85 0
c-102 0 -116 -12 -116 -100 0 -51 3 -56 30 -72 69 -39 92 -142 47 -209 -60
-90 -194 -90 -254 0 -45 67 -22 170 47 209 29 17 30 19 30 93 0 135 51 179
208 179 l92 0 0 125 0 125 -52 0 c-48 0 -55 -3 -70 -29 -52 -92 -195 -93 -255
-2 -31 46 -31 116 0 162 60 91 203 90 255 -2 15 -26 22 -29 70 -29 l52 0 0
113 c-1 126 -10 178 -38 216 -46 62 -139 85 -208 53z"/>
<path d="M1227 1866 c-91 -33 -110 -74 -115 -248 l-4 -138 93 0 c70 0 103 -5
129 -18 41 -20 80 -74 80 -111 0 -18 9 -31 30 -43 69 -39 92 -142 47 -209 -82
-124 -277 -67 -277 80 0 53 25 101 67 127 15 10 30 19 32 21 2 1 -4 14 -13 28
-15 23 -22 25 -101 25 l-85 0 0 -300 0 -300 53 0 c47 0 54 3 69 29 52 92 195
93 255 2 31 -46 31 -116 0 -162 -60 -91 -203 -90 -255 2 -15 26 -22 29 -71 29
l-53 0 4 -138 c3 -115 6 -143 24 -172 44 -76 138 -107 215 -72 53 23 77 48 94
99 12 34 17 38 44 35 120 -12 234 108 215 229 -6 34 -4 39 22 52 78 41 127
124 127 217 0 81 -24 131 -88 188 l-46 41 17 33 c22 42 23 133 1 174 -20 38
-79 92 -111 100 -20 5 -23 11 -23 62 0 83 -40 145 -119 185 -20 11 -33 26 -37
44 -8 41 -45 83 -91 104 -48 22 -77 23 -129 5z"/>
<path d="M724 1455 c-15 -23 -15 -27 0 -50 9 -14 25 -25 36 -25 11 0 27 11 36
25 15 23 15 27 0 50 -9 14 -25 25 -36 25 -11 0 -27 -11 -36 -25z"/>
<path d="M1324 1205 c-15 -23 -15 -27 0 -50 9 -14 25 -25 36 -25 11 0 27 11
36 25 15 23 15 27 0 50 -9 14 -25 25 -36 25 -11 0 -27 -11 -36 -25z"/>
<path d="M724 755 c-15 -23 -15 -27 0 -50 9 -14 25 -25 36 -25 11 0 27 11 36
25 15 23 15 27 0 50 -9 14 -25 25 -36 25 -11 0 -27 -11 -36 -25z"/>
<path d="M1324 755 c-15 -23 -15 -27 0 -50 9 -14 25 -25 36 -25 11 0 27 11 36
25 15 23 15 27 0 50 -9 14 -25 25 -36 25 -11 0 -27 -11 -36 -25z"/>
</g>
</svg>
