<svg viewBox="0 0 1024 1089.841"><path d="M 197.406 180.777 C 589 -55 641 363 996.71 111.857 V 653.603 C 680 910 563 502 197.406 720.843 Z M 101.424 32.92 C 142.376 32.92 175.579 66.142 175.579 107.075 C 175.579 134.269 160.932 158.025 139.124 170.931 H 142.62 V 918.93 H 139.125 C 160.933 931.837 175.579 948.713 175.579 982.786 C 175.579 1016.84 142.374 1056.922 101.423 1056.922 S 27.268 1016.84 27.268 982.786 C 27.268 948.713 41.913 931.836 63.721 918.93 H 60.225 V 170.93 H 63.721 C 41.913 158.024 27.267 134.27 27.267 107.075 C 27.267 66.142 60.47 32.92 101.421 32.92 Z"/></svg>