<svg xmlns="http://www.w3.org/2000/svg" viewBox="0 0 16 16" height="16" width="16">
<g fill="none" fill-rule="evenodd">
<path d="M16 0v16H0V0h16ZM8.395333333333333 15.505333333333333l-0.007333333333333332 0.0013333333333333333 -0.047333333333333324 0.023333333333333334 -0.013333333333333332 0.0026666666666666666 -0.009333333333333332 -0.0026666666666666666 -0.047333333333333324 -0.023333333333333334c-0.006666666666666666 -0.0026666666666666666 -0.012666666666666666 -0.0006666666666666666 -0.016 0.003333333333333333l-0.0026666666666666666 0.006666666666666666 -0.011333333333333334 0.2853333333333333 0.003333333333333333 0.013333333333333332 0.006666666666666666 0.008666666666666666 0.06933333333333333 0.049333333333333326 0.009999999999999998 0.0026666666666666666 0.008 -0.0026666666666666666 0.06933333333333333 -0.049333333333333326 0.008 -0.010666666666666666 0.0026666666666666666 -0.011333333333333334 -0.011333333333333334 -0.2846666666666666c-0.0013333333333333333 -0.006666666666666666 -0.005999999999999999 -0.011333333333333334 -0.011333333333333334 -0.011999999999999999Zm0.17666666666666667 -0.07533333333333334 -0.008666666666666666 0.0013333333333333333 -0.12333333333333332 0.062 -0.006666666666666666 0.006666666666666666 -0.002 0.007333333333333332 0.011999999999999999 0.2866666666666666 0.003333333333333333 0.008 0.005333333333333333 0.004666666666666666 0.134 0.062c0.008 0.0026666666666666666 0.015333333333333332 0 0.019333333333333334 -0.005333333333333333l0.0026666666666666666 -0.009333333333333332 -0.02266666666666667 -0.4093333333333333c-0.002 -0.008 -0.006666666666666666 -0.013333333333333332 -0.013333333333333332 -0.014666666666666665Zm-0.4766666666666666 0.0013333333333333333a0.015333333333333332 0.015333333333333332 0 0 0 -0.018 0.004l-0.004 0.009333333333333332 -0.02266666666666667 0.4093333333333333c0 0.008 0.004666666666666666 0.013333333333333332 0.011333333333333334 0.016l0.009999999999999998 -0.0013333333333333333 0.134 -0.062 0.006666666666666666 -0.005333333333333333 0.0026666666666666666 -0.007333333333333332 0.011333333333333334 -0.2866666666666666 -0.002 -0.008 -0.006666666666666666 -0.006666666666666666 -0.12266666666666666 -0.06133333333333333Z" stroke-width="0.6667"></path>
<path fill="currentColor" d="M8 0.6666666666666666a0.6666666666666666 0.6666666666666666 0 0 1 0.6666666666666666 0.6666666666666666v1.3046666666666666c0.020666666666666667 0.2333333333333333 0.046 0.4666666666666666 0.07266666666666666 0.6993333333333333a0.6666666666666666 0.6666666666666666 0 0 1 0.16933333333333334 1.2839999999999998l0.041999999999999996 0.27599999999999997c0.18333333333333335 1.1746666666666665 0.4606666666666666 2.58 0.8546666666666667 3.769333333333333H10a0.6666666666666666 0.6666666666666666 0 0 1 0.30933333333333335 1.2573333333333332c0.11866666666666666 0.25066666666666665 0.24666666666666665 0.49866666666666665 0.37999999999999995 0.7426666666666667H11.333333333333332a0.6666666666666666 0.6666666666666666 0 0 1 0.15333333333333332 1.3159999999999998c0.5133333333333333 0.7786666666666666 1.0686666666666667 1.54 1.682 2.2446666666666664A0.6666666666666666 0.6666666666666666 0 0 1 12.666666666666666 15.333333333333332h-2.6666666666666665a0.6666666666666666 0.6666666666666666 0 0 1 -0.5646666666666667 -0.312l-0.04066666666666666 -0.07533333333333334a1.8593333333333333 1.8593333333333333 0 0 0 -0.348 -0.48C8.802666666666667 14.216000000000001 8.464666666666666 14 8 14c-0.4646666666666666 0 -0.8026666666666666 0.216 -1.0466666666666666 0.46599999999999997a1.9946666666666666 1.9946666666666666 0 0 0 -0.29066666666666663 0.374l-0.057333333333333326 0.106A0.6666666666666666 0.6666666666666666 0 0 1 6 15.333333333333332H3.333333333333333a0.6666666666666666 0.6666666666666666 0 0 1 -0.5006666666666666 -1.1066666666666665c0.6126666666666667 -0.7053333333333334 1.1666666666666665 -1.4646666666666666 1.6806666666666665 -2.2439999999999998A0.6666666666666666 0.6666666666666666 0 0 1 4.666666666666666 10.666666666666666h0.6439999999999999c0.13333333333333333 -0.244 0.2613333333333333 -0.49266666666666664 0.37999999999999995 -0.7426666666666667A0.6666666666666666 0.6666666666666666 0 0 1 6 8.666666666666666h0.19466666666666665c0.35 -1.0566666666666666 0.6086666666666667 -2.285333333333333 0.79 -3.3699999999999997l0.10666666666666666 -0.6753333333333332a0.6666666666666666 0.6666666666666666 0 0 1 0.16933333333333334 -1.2839999999999998c0.026666666666666665 -0.2333333333333333 0.052 -0.4666666666666666 0.07333333333333333 -0.7V1.3333333333333333a0.6666666666666666 0.6666666666666666 0 0 1 0.6666666666666666 -0.6666666666666666Zm0.8819999999999999 9.333333333333332h-1.7639999999999998l-0.148 0.3353333333333333 -0.15733333333333333 0.3313333333333333h2.3746666666666663l-0.15733333333333333 -0.3313333333333333 -0.148 -0.3353333333333333Z" stroke-width="0.6667"></path>
</g>
</svg>