<svg width="726" height="885" viewBox="-17.582 -4.664 71.571 87.246">
    <use xlink:href="#npl_a" stroke="#003893" stroke-width="5.165"/>
    <path id="npl_a" d="M-15 37.574h60L-15 0v80h60l-60-60z" fill="#DC143C"/>
    <g fill="#fff">
        <path d="M-11.95 23.483a12.84 12.84 0 0 0 23.9 0 11.95 11.95 0 0 1-23.9 0"/>
        <g transform="translate(0 29.045) scale(5.56106)">
            <circle r="1"/>
            <g id="npl_d">
                <g id="npl_c">
                    <path id="npl_b" d="M.195-.98 0-1.39l-.195.408" transform="rotate(11.25)"/>
                    <use xlink:href="#npl_b" transform="rotate(22.5)"/>
                    <use xlink:href="#npl_b" transform="rotate(45)"/>
                </g>
                <use xlink:href="#npl_c" transform="rotate(67.5)"/>
            </g>
            <use xlink:href="#npl_d" transform="scale(-1 1)"/>
        </g>
        <g transform="matrix(8.1434 0 0 8.1434 0 58.787)">
            <circle r="1"/>
            <g id="npl_g">
                <g id="npl_f">
                    <path id="npl_e" d="M.259.966 0 1.576l-.259-.61"/>
                    <use xlink:href="#npl_e" transform="rotate(180)"/>
                </g>
                <use xlink:href="#npl_f" transform="rotate(90)"/>
            </g>
            <use xlink:href="#npl_g" transform="rotate(30)"/>
            <use xlink:href="#npl_g" transform="rotate(60)"/>
        </g>
    </g>
</svg>
