<svg xmlns="http://www.w3.org/2000/svg" width="512" height="447" viewBox="0 0 512 447" version="1.1">
  <path d="M 238.791 6.041 C 231.464 1.169 213.628 1.506 208.111 5.684 C 202.594 9.862 200.345 15.375 195.701 25 C 187.459 42.084 177.84 61.813 154.992 108.5 C 139.792 139.56 24.217 372.324 5.071 413.781 C -6.243 438.28 4.557 447.271 16.817 447.227 L 256.136 447 L 494.057 447.783 C 513.404 446.632 513.971 427.64 507.078 415 C 505.953 412.937 401.193 167.15 400.465 165.5 C 399.736 163.85 396.564 156.425 393.416 149 C 390.267 141.575 388.137 136.176 386.274 133.842 C 381.689 128.099 377.363 125.085 368.691 124.481 C 361.497 123.98 355.571 126.002 351.187 132.898 C 349.083 136.207 347.838 136.677 338.988 165 C 337.184 170.775 334.786 178.16 333.661 181.412 L 331.614 187.324 L 321.941 167.412 C 316.621 156.46 306.751 136.25 300.007 122.5 C 279.877 81.455 263.862 48.715 253.537 27.5 C 248.184 16.5 245.139 10.262 238.791 6.041 Z M 192.216 128.962 L 160.932 191.909 L 160.355 203.205 C 159.806 213.967 159.892 214.665 162.178 218 C 165.088 222.246 169.824 223.227 180.5 221.795 C 189.866 220.538 197.401 216.203 207.549 206.232 C 218.13 195.835 225.939 191.846 236.958 191.209 C 243.791 190.813 245.491 191.078 250.328 193.293 C 258.177 196.886 265.039 204.235 276.835 221.682 C 288.155 238.425 296.282 246.914 305.034 251.137 C 310.717 253.88 319.52 255.902 318.869 254.315 C 317.2 250.244 224.383 66.022 224 66.018 C 223.725 66.016 209.422 94.34 192.216 128.962 Z" stroke="none" fill-rule="evenodd"></path>
  <path d="" stroke="none" fill-rule="evenodd"></path>
  <path d="" stroke="none" fill-rule="evenodd"></path>
</svg>