<svg version="1.2" xmlns="http://www.w3.org/2000/svg" viewBox="0 0 260 261" width="260" height="261">
	<title>storm-sea-ocean-waves-svgrepo-com</title>
	<style>
		.s0 { fill: currentColor;stroke: currentColor;stroke-linejoin: round;stroke-width: 8 } 
	</style>
	<g id="Layer 1">
		<path class="s0" d="m230.2 146c3.9 1.9 8.2 3 12.7 3v20.3c-4.5 0-8.8-1.1-12.7-2.9-4-2-8.4-3.1-13.1-3.1-4.7 0-9.2 1.1-13.1 3.1-3.9 1.8-8.3 2.9-12.8 2.9-4.5 0-8.8-1.1-12.7-2.9-4-2-8.5-3.1-13.1-3.1-4.7 0-9.2 1.1-13.2 3.1-3.9 1.8-8.2 2.9-12.7 2.9-4.5 0-8.9-1.1-12.8-2.9-4-2-8.4-3.1-13.1-3.1-4.7 0-9.2 1.1-13.1 3.1-3.9 1.8-8.2 2.9-12.8 2.9-4.5 0-8.8-1.1-12.7-2.9-4-2-8.5-3.1-13.1-3.1-4.7 0-9.2 1.1-13.2 3.1-7.9 3.9-17.5 3.9-25.4 0-2-1-4.1-1.8-6.3-2.3v-20.4q3.3 0.8 6.3 2.3c7.9 3.9 17.5 3.9 25.4 0 4-2 8.5-3.1 13.2-3.1 4.6 0 9.1 1.1 13.1 3.1 3.9 1.9 8.2 3 12.7 3 4.6 0 8.9-1.1 12.8-3 3.9-2 8.4-3.1 13.1-3.1 4.7 0 9.1 1.1 13.1 3.1 3.9 1.9 8.3 3 12.8 3 4.5 0 8.8-1.1 12.7-3 4-2 8.5-3.1 13.2-3.1 4.6 0 9.1 1.1 13.1 3.1 3.9 1.9 8.2 3 12.7 3 4.5 0 8.9-1.1 12.8-3 3.9-2 8.4-3.1 13.1-3.1 4.7 0 9.1 1.1 13.1 3.1zm-13.1 47.6c-4.7 0-9.2 1.2-13.1 3.1-3.9 1.9-8.3 3-12.8 3-4.5 0-8.8-1.1-12.7-3-4-1.9-8.5-3.1-13.1-3.1-4.7 0-9.2 1.2-13.2 3.1-3.9 1.9-8.2 3-12.7 3-4.5 0-8.9-1.1-12.8-3-4-1.9-8.4-3.1-13.1-3.1-4.7 0-9.2 1.2-13.1 3.1-3.9 1.9-8.2 3-12.8 3-4.5 0-8.8-1.1-12.7-3-4-1.9-8.5-3.1-13.1-3.1-4.7 0-9.2 1.2-13.2 3.1-7.9 3.9-17.5 4-25.4 0q-3-1.5-6.3-2.3v20.4c2.2 0.5 4.3 1.3 6.3 2.3 7.9 3.9 17.5 3.9 25.4 0 4-2 8.5-3.1 13.2-3.1 4.6 0 9.1 1.1 13.1 3.1 3.9 1.9 8.2 2.9 12.7 2.9 4.6 0 8.9-1 12.8-2.9 3.9-2 8.4-3.1 13.1-3.1 4.7 0 9.1 1.1 13.1 3.1 3.9 1.9 8.3 2.9 12.8 2.9 4.5 0 8.8-1 12.7-2.9 4-2 8.5-3.1 13.2-3.1 4.6 0 9.1 1.1 13.1 3.1 3.9 1.9 8.2 2.9 12.7 2.9 4.5 0 8.9-1 12.8-2.9 3.9-2 8.4-3.1 13.1-3.1 4.7 0 9.1 1.1 13.1 3.1 3.9 1.9 8.2 2.9 12.7 2.9v-20.3c-4.5 0-8.8-1.1-12.7-3-4-1.9-8.4-3.1-13.1-3.1zm17.7-88.3c-2.3-1-5.2-1.6-8.4-3.1-4.9-2.5-9-6.1-9.6-11.6-0.8-7.5 5.2-15 14.7-9.9 0.8-8.8-7.5-17.3-18.4-17.2-9.2 0.1-19.5 5.8-31.2 22.3-4 5.5-12.6 16.2-29.6 16.2-13.7 0-24.6-10.3-22.3-24.6 2.1-12.7 16.9-17.9 25.2-12 0.6-11-11.6-24.4-28.7-24.4-15.3 0-27 7.6-45.1 26.6-8.2 8.6-28.8 31.7-64.4 39.7 0 5.7 11.5 11.2 19 11.2 4.5 0 8.9-1.1 12.7-2.9 4-2 8.5-3.2 13.2-3.2 4.6 0 9.1 1.2 13.1 3.2 3.9 1.8 8.2 2.9 12.7 2.9 4.6 0 8.9-1.1 12.8-2.9 3.9-2 8.4-3.2 13.1-3.2 4.7 0 9.1 1.2 13.1 3.2 3.9 1.8 8.2 2.9 12.8 2.9 4.5 0 8.8-1.1 12.7-2.9 4-2 8.5-3.2 13.2-3.2 4.6 0 9.1 1.2 13 3.2 4 1.8 8.3 2.9 12.8 2.9 4.5 0 8.9-1.1 12.8-2.9 3.9-2 8.4-3.2 13.1-3.2 4.7 0 9.1 1.2 13.1 3.2 3.9 1.8 8.3 3.1 12.8 3.1v-2.4c0-2.1-1.1-8.1-8.2-11z"/>
	</g>
</svg>